<svg xmlns="http://www.w3.org/2000/svg" viewBox="0 0 400 350">
  <defs>
    <linearGradient id="bgGrad" x1="0%" y1="0%" x2="100%" y2="100%">
      <stop offset="0%" style="stop-color:#E8F5F3;stop-opacity:0.5"/>
      <stop offset="100%" style="stop-color:#F5F5F5;stop-opacity:0.3"/>
    </linearGradient>
  </defs>
  
  <!-- Background circle -->
  <circle cx="200" cy="175" r="140" fill="url(#bgGrad)"/>
  
  <!-- Checkmark circle -->
  <circle cx="280" cy="80" r="25" fill="#4DB6AC"/>
  <path d="M270 80 L277 87 L292 72" stroke="white" stroke-width="3" fill="none" stroke-linecap="round" stroke-linejoin="round"/>
  
  <!-- Heart icon -->
  <circle cx="100" cy="230" r="15" fill="#FFB74D"/>
  <path d="M95 230 C95 227 97 225 100 225 C103 225 105 227 105 230 C105 234 100 238 100 238 C100 238 95 234 95 230" fill="white"/>
  
  <!-- Blue droplet -->
  <circle cx="120" cy="140" r="12" fill="#42A5F5"/>
  
  <!-- Screen/Kiosk -->
  <rect x="170" y="110" width="120" height="90" rx="8" fill="#1E3A5F"/>
  <rect x="180" y="120" width="45" height="35" rx="4" fill="#FFD54F"/>
  <rect x="235" y="120" width="45" height="35" rx="4" fill="#4FC3F7"/>
  <rect x="180" y="165" width="100" height="25" rx="4" fill="#66BB6A"/>
  
  <!-- Kiosk stand -->
  <path d="M210 200 Q230 220 250 200 L250 260 L210 260 Z" fill="#1E3A5F"/>
  <ellipse cx="230" cy="265" rx="35" ry="10" fill="#90A4AE"/>
  
  <!-- Robot -->
  <ellipse cx="140" cy="300" rx="45" ry="15" fill="#90A4AE"/>
  
  <!-- Robot body -->
  <rect x="105" y="220" width="70" height="80" rx="10" fill="#546E7A"/>
  <rect x="115" y="230" width="50" height="40" rx="5" fill="#78909C"/>
  
  <!-- Robot head -->
  <rect x="115" y="180" width="50" height="45" rx="8" fill="#546E7A"/>
  <circle cx="130" cy="200" r="8" fill="#4DB6AC"/>
  <circle cx="150" cy="200" r="8" fill="#4DB6AC"/>
  <rect x="125" y="215" width="30" height="5" rx="2" fill="#4DB6AC"/>
  
  <!-- Robot antenna -->
  <line x1="140" y1="175" x2="140" y2="165" stroke="#546E7A" stroke-width="3"/>
  <circle cx="140" cy="162" r="5" fill="#4DB6AC"/>
  
  <!-- Robot arm with tray -->
  <rect x="95" y="240" width="15" height="50" rx="5" fill="#78909C"/>
  <rect x="75" y="235" width="35" height="25" rx="4" fill="#90A4AE"/>
  <circle cx="85" cy="247" r="8" fill="#E57373"/>
  <rect x="85" y="243" width="15" height="5" fill="#FFCC80"/>
  
  <!-- Person -->
  <!-- Head -->
  <circle cx="310" cy="150" r="25" fill="#FFCC80"/>
  
  <!-- Hair -->
  <path d="M290 135 Q285 125 295 120 Q310 115 325 120 Q335 125 330 135" fill="#5D4037"/>
  
  <!-- Body -->
  <path d="M280 180 Q310 170 340 180 L340 220 Q310 215 280 220 Z" fill="#FDD835"/>
  
  <!-- Shirt details -->
  <rect x="295" y="180" width="30" height="40" rx="3" fill="#F9A825"/>
  
  <!-- Arms -->
  <path d="M280 185 L260 210 L255 220" stroke="#FFCC80" stroke-width="10" fill="none" stroke-linecap="round"/>
  <path d="M340 185 L360 200 L370 195" stroke="#FFCC80" stroke-width="10" fill="none" stroke-linecap="round"/>
  
  <!-- Backpack -->
  <rect x="340" y="180" width="20" height="35" rx="5" fill="#4DB6AC"/>
  <path d="M340 190 Q345 185 350 190" stroke="#3D9E95" stroke-width="2" fill="none"/>
  
  <!-- Legs -->
  <rect x="290" y="220" width="18" height="70" fill="#1E3A5F"/>
  <rect x="312" y="220" width="18" height="70" fill="#1E3A5F"/>
  
  <!-- Shoes -->
  <ellipse cx="300" cy="295" rx="15" ry="8" fill="#FF8A65"/>
  <ellipse cx="320" cy="295" rx="15" ry="8" fill="#FF8A65"/>
  
  <!-- Small decorative elements -->
  <circle cx="350" cy="260" r="4" fill="#4DB6AC" opacity="0.6"/>
  <circle cx="85" cy="150" r="3" fill="#FFB74D" opacity="0.6"/>
  <circle cx="330" cy="120" r="5" fill="#42A5F5" opacity="0.5"/>
  
  <!-- Number on robot -->
  <text x="140" y="285" font-family="Arial" font-size="12" fill="white" text-anchor="middle">30</text>
  
  <!-- Plant decoration -->
  <ellipse cx="280" cy="310" rx="20" ry="8" fill="#81C784"/>
  <path d="M280 310 Q275 295 285 290" stroke="#66BB6A" stroke-width="3" fill="none"/>
  <path d="M280 310 Q290 300 295 285" stroke="#66BB6A" stroke-width="3" fill="none"/>
  <ellipse cx="285" cy="287" rx="8" ry="5" fill="#81C784"/>
  <ellipse cx="295" cy="282" rx="7" ry="4" fill="#66BB6A"/>
</svg>

