<svg width="40" height="41" viewBox="0 0 40 41" fill="none" xmlns="http://www.w3.org/2000/svg">
<rect width="40" height="41" fill="#F7F7F7"/>
<g clip-path="url(#clip0_2427_411)">
<path d="M14.6017 22.1832L13.9577 24.5832L11.6027 24.6332C10.8905 23.3067 10.5121 21.8267 10.5003 20.3211C10.4884 18.8155 10.8435 17.3297 11.5347 15.9922L13.6347 16.3762L14.5527 18.4602C14.1398 19.6683 14.1582 20.9821 14.6047 22.1782L14.6017 22.1832Z" fill="#FBBB00"/>
<path d="M28.846 18.5234C29.16 20.1735 29.0187 21.878 28.4373 23.4539C27.8559 25.0298 26.8564 26.4176 25.5461 27.4684L22.906 27.3334L22.532 25.0004C23.6223 24.3614 24.46 23.3673 24.905 22.1844H19.957V18.5234H28.846Z" fill="#518EF8"/>
<path d="M25.5495 27.4696C24.4905 28.3194 23.2575 28.9258 21.938 29.2458C20.6185 29.5659 19.2447 29.5918 17.9141 29.3216C16.5834 29.0515 15.3285 28.4919 14.2383 27.6826C13.1481 26.8733 12.2492 25.8341 11.6055 24.6386L14.6055 22.1836C14.8865 22.9346 15.3284 23.615 15.9001 24.1773C16.4718 24.7395 17.1595 25.1699 17.9151 25.4384C18.6707 25.7069 19.4758 25.8069 20.2741 25.7314C21.0724 25.656 21.8446 25.4069 22.5365 25.0016L25.5495 27.4696Z" fill="#28B446"/>
<path d="M25.6641 13.1291L22.6641 15.5831C21.9619 15.1451 21.1701 14.8712 20.3474 14.7818C19.5247 14.6924 18.6925 14.7898 17.9127 15.0667C17.1329 15.3436 16.4256 15.7929 15.8436 16.3812C15.2615 16.9694 14.8197 17.6814 14.5511 18.4641L11.5391 15.9991C12.1749 14.7715 13.0776 13.7019 14.181 12.8689C15.2843 12.0359 16.5603 11.4606 17.9151 11.1853C19.2699 10.9101 20.6691 10.9418 22.0101 11.2781C23.351 11.6145 24.5996 12.247 25.6641 13.1291Z" fill="#F14336"/>
</g>
<defs>
<clipPath id="clip0_2427_411">
<rect width="19" height="19" fill="white" transform="translate(10.5 11)"/>
</clipPath>
</defs>
</svg>
